<mxfile host="app.diagrams.net" modified="2023-08-21T09:36:30.969Z" agent="Mozilla/5.0 (Macintosh; Intel Mac OS X 10_15_7) AppleWebKit/537.36 (KHTML, like Gecko) Chrome/115.0.0.0 Safari/537.36" etag="n01BP3Yk75XhG2xDHeyR" version="21.6.8" type="github">
  <diagram name="Page-1" id="evkDd5WfYAYsn0If8Dsk">
    <mxGraphModel dx="1451" dy="930" grid="1" gridSize="10" guides="1" tooltips="1" connect="1" arrows="1" fold="1" page="1" pageScale="1" pageWidth="827" pageHeight="1169" math="0" shadow="0">
      <root>
        <mxCell id="0" />
        <mxCell id="1" parent="0" />
        <mxCell id="YT2d1zYaTEOhZWZDPxQu-1" value="&lt;font style=&quot;font-size: 16px;&quot; color=&quot;#ffffff&quot;&gt;Output layer&lt;/font&gt;" style="rounded=0;whiteSpace=wrap;html=1;fillColor=#87B2F0;strokeColor=#36393d;" vertex="1" parent="1">
          <mxGeometry x="169" y="190" width="120" height="60" as="geometry" />
        </mxCell>
        <mxCell id="YT2d1zYaTEOhZWZDPxQu-5" value="" style="edgeStyle=orthogonalEdgeStyle;rounded=0;orthogonalLoop=1;jettySize=auto;html=1;" edge="1" parent="1" source="YT2d1zYaTEOhZWZDPxQu-2" target="YT2d1zYaTEOhZWZDPxQu-1">
          <mxGeometry relative="1" as="geometry" />
        </mxCell>
        <mxCell id="YT2d1zYaTEOhZWZDPxQu-2" value="&lt;font style=&quot;font-size: 16px;&quot; color=&quot;#ffffff&quot;&gt;Layer L - 1&lt;/font&gt;" style="rounded=0;whiteSpace=wrap;html=1;fillColor=#87B2F0;strokeColor=#36393d;" vertex="1" parent="1">
          <mxGeometry x="169" y="300" width="120" height="60" as="geometry" />
        </mxCell>
        <mxCell id="YT2d1zYaTEOhZWZDPxQu-3" value="&lt;font style=&quot;font-size: 16px;&quot; color=&quot;#ffffff&quot;&gt;Layer 1&lt;/font&gt;" style="rounded=0;whiteSpace=wrap;html=1;fillColor=#87B2F0;strokeColor=#36393d;" vertex="1" parent="1">
          <mxGeometry x="169" y="460" width="120" height="60" as="geometry" />
        </mxCell>
        <mxCell id="YT2d1zYaTEOhZWZDPxQu-6" value="" style="edgeStyle=orthogonalEdgeStyle;rounded=0;orthogonalLoop=1;jettySize=auto;html=1;" edge="1" parent="1">
          <mxGeometry relative="1" as="geometry">
            <mxPoint x="229" y="400" as="sourcePoint" />
            <mxPoint x="228.5" y="360" as="targetPoint" />
            <Array as="points">
              <mxPoint x="229" y="390" />
              <mxPoint x="229" y="390" />
            </Array>
          </mxGeometry>
        </mxCell>
        <mxCell id="YT2d1zYaTEOhZWZDPxQu-7" value="&lt;font style=&quot;font-size: 14px;&quot;&gt;...&lt;/font&gt;" style="text;html=1;strokeColor=none;fillColor=none;align=center;verticalAlign=middle;whiteSpace=wrap;rounded=0;" vertex="1" parent="1">
          <mxGeometry x="199" y="390" width="60" height="30" as="geometry" />
        </mxCell>
        <mxCell id="YT2d1zYaTEOhZWZDPxQu-8" value="" style="edgeStyle=orthogonalEdgeStyle;rounded=0;orthogonalLoop=1;jettySize=auto;html=1;" edge="1" parent="1">
          <mxGeometry relative="1" as="geometry">
            <mxPoint x="229.27999999999997" y="460" as="sourcePoint" />
            <mxPoint x="228.77999999999997" y="420" as="targetPoint" />
            <Array as="points">
              <mxPoint x="229.27999999999997" y="450" />
              <mxPoint x="229.27999999999997" y="450" />
            </Array>
          </mxGeometry>
        </mxCell>
        <mxCell id="YT2d1zYaTEOhZWZDPxQu-11" value="" style="edgeStyle=orthogonalEdgeStyle;rounded=0;orthogonalLoop=1;jettySize=auto;html=1;" edge="1" parent="1" source="YT2d1zYaTEOhZWZDPxQu-10" target="YT2d1zYaTEOhZWZDPxQu-3">
          <mxGeometry relative="1" as="geometry" />
        </mxCell>
        <mxCell id="YT2d1zYaTEOhZWZDPxQu-10" value="&lt;font style=&quot;font-size: 16px;&quot;&gt;Source Data&lt;/font&gt;" style="rounded=0;whiteSpace=wrap;html=1;fontColor=#000000;" vertex="1" parent="1">
          <mxGeometry x="169" y="570" width="120" height="60" as="geometry" />
        </mxCell>
        <mxCell id="YT2d1zYaTEOhZWZDPxQu-13" value="&lt;span style=&quot;color: rgb(0, 0, 0); font-family: Helvetica; font-size: 16px; font-style: normal; font-variant-ligatures: normal; font-variant-caps: normal; font-weight: 400; letter-spacing: normal; orphans: 2; text-align: center; text-indent: 0px; text-transform: none; widows: 2; word-spacing: 0px; -webkit-text-stroke-width: 0px; background-color: rgb(251, 251, 251); text-decoration-thickness: initial; text-decoration-style: initial; text-decoration-color: initial; float: none; display: inline !important;&quot;&gt;Pre-train&lt;/span&gt;" style="text;whiteSpace=wrap;html=1;" vertex="1" parent="1">
          <mxGeometry x="60" y="393" width="120" height="40" as="geometry" />
        </mxCell>
        <mxCell id="YT2d1zYaTEOhZWZDPxQu-14" value="&lt;font style=&quot;font-size: 16px;&quot; color=&quot;#ffffff&quot;&gt;Output layer&lt;/font&gt;" style="rounded=0;whiteSpace=wrap;html=1;fillColor=#87B2F0;strokeColor=#36393d;" vertex="1" parent="1">
          <mxGeometry x="513" y="190" width="120" height="60" as="geometry" />
        </mxCell>
        <mxCell id="YT2d1zYaTEOhZWZDPxQu-15" value="" style="edgeStyle=orthogonalEdgeStyle;rounded=0;orthogonalLoop=1;jettySize=auto;html=1;" edge="1" parent="1" source="YT2d1zYaTEOhZWZDPxQu-16" target="YT2d1zYaTEOhZWZDPxQu-14">
          <mxGeometry relative="1" as="geometry" />
        </mxCell>
        <mxCell id="YT2d1zYaTEOhZWZDPxQu-16" value="&lt;font style=&quot;font-size: 16px;&quot; color=&quot;#ffffff&quot;&gt;Layer L - 1&lt;/font&gt;" style="rounded=0;whiteSpace=wrap;html=1;fillColor=#87B2F0;strokeColor=#36393d;" vertex="1" parent="1">
          <mxGeometry x="513" y="300" width="120" height="60" as="geometry" />
        </mxCell>
        <mxCell id="YT2d1zYaTEOhZWZDPxQu-17" value="&lt;font style=&quot;font-size: 16px;&quot; color=&quot;#ffffff&quot;&gt;Layer 1&lt;/font&gt;" style="rounded=0;whiteSpace=wrap;html=1;fillColor=#87B2F0;strokeColor=#36393d;" vertex="1" parent="1">
          <mxGeometry x="513" y="460" width="120" height="60" as="geometry" />
        </mxCell>
        <mxCell id="YT2d1zYaTEOhZWZDPxQu-18" value="" style="edgeStyle=orthogonalEdgeStyle;rounded=0;orthogonalLoop=1;jettySize=auto;html=1;" edge="1" parent="1">
          <mxGeometry relative="1" as="geometry">
            <mxPoint x="573" y="400" as="sourcePoint" />
            <mxPoint x="572.5" y="360" as="targetPoint" />
            <Array as="points">
              <mxPoint x="573" y="390" />
              <mxPoint x="573" y="390" />
            </Array>
          </mxGeometry>
        </mxCell>
        <mxCell id="YT2d1zYaTEOhZWZDPxQu-19" value="&lt;font style=&quot;font-size: 14px;&quot;&gt;...&lt;/font&gt;" style="text;html=1;strokeColor=none;fillColor=none;align=center;verticalAlign=middle;whiteSpace=wrap;rounded=0;" vertex="1" parent="1">
          <mxGeometry x="543" y="390" width="60" height="30" as="geometry" />
        </mxCell>
        <mxCell id="YT2d1zYaTEOhZWZDPxQu-20" value="" style="edgeStyle=orthogonalEdgeStyle;rounded=0;orthogonalLoop=1;jettySize=auto;html=1;" edge="1" parent="1">
          <mxGeometry relative="1" as="geometry">
            <mxPoint x="573.28" y="460" as="sourcePoint" />
            <mxPoint x="572.78" y="420" as="targetPoint" />
            <Array as="points">
              <mxPoint x="573.28" y="450" />
              <mxPoint x="573.28" y="450" />
            </Array>
          </mxGeometry>
        </mxCell>
        <mxCell id="YT2d1zYaTEOhZWZDPxQu-21" value="" style="edgeStyle=orthogonalEdgeStyle;rounded=0;orthogonalLoop=1;jettySize=auto;html=1;" edge="1" parent="1" source="YT2d1zYaTEOhZWZDPxQu-22" target="YT2d1zYaTEOhZWZDPxQu-17">
          <mxGeometry relative="1" as="geometry" />
        </mxCell>
        <mxCell id="YT2d1zYaTEOhZWZDPxQu-22" value="&lt;font style=&quot;font-size: 16px;&quot;&gt;Target Data&lt;/font&gt;" style="rounded=0;whiteSpace=wrap;html=1;fontColor=#000000;" vertex="1" parent="1">
          <mxGeometry x="513" y="570" width="120" height="60" as="geometry" />
        </mxCell>
        <mxCell id="YT2d1zYaTEOhZWZDPxQu-25" value="" style="endArrow=classic;html=1;rounded=0;dashed=1;" edge="1" parent="1">
          <mxGeometry width="50" height="50" relative="1" as="geometry">
            <mxPoint x="303" y="220" as="sourcePoint" />
            <mxPoint x="509" y="220" as="targetPoint" />
          </mxGeometry>
        </mxCell>
        <mxCell id="YT2d1zYaTEOhZWZDPxQu-26" value="&lt;font style=&quot;font-size: 14px;&quot;&gt;Random&lt;br&gt;initialization&lt;/font&gt;" style="edgeLabel;html=1;align=center;verticalAlign=middle;resizable=0;points=[];" vertex="1" connectable="0" parent="YT2d1zYaTEOhZWZDPxQu-25">
          <mxGeometry x="-0.137" y="-1" relative="1" as="geometry">
            <mxPoint as="offset" />
          </mxGeometry>
        </mxCell>
        <mxCell id="YT2d1zYaTEOhZWZDPxQu-28" value="" style="endArrow=classic;html=1;rounded=0;dashed=1;" edge="1" parent="1">
          <mxGeometry width="50" height="50" relative="1" as="geometry">
            <mxPoint x="307" y="329.44" as="sourcePoint" />
            <mxPoint x="513" y="329.44" as="targetPoint" />
          </mxGeometry>
        </mxCell>
        <mxCell id="YT2d1zYaTEOhZWZDPxQu-29" value="&lt;span style=&quot;font-size: 14px;&quot;&gt;Copy&lt;/span&gt;" style="edgeLabel;html=1;align=center;verticalAlign=middle;resizable=0;points=[];" vertex="1" connectable="0" parent="YT2d1zYaTEOhZWZDPxQu-28">
          <mxGeometry x="-0.137" y="-1" relative="1" as="geometry">
            <mxPoint as="offset" />
          </mxGeometry>
        </mxCell>
        <mxCell id="YT2d1zYaTEOhZWZDPxQu-30" value="" style="endArrow=classic;html=1;rounded=0;dashed=1;" edge="1" parent="1">
          <mxGeometry width="50" height="50" relative="1" as="geometry">
            <mxPoint x="307" y="489.44" as="sourcePoint" />
            <mxPoint x="513" y="489.44" as="targetPoint" />
          </mxGeometry>
        </mxCell>
        <mxCell id="YT2d1zYaTEOhZWZDPxQu-31" value="&lt;span style=&quot;font-size: 14px;&quot;&gt;Copy&lt;/span&gt;" style="edgeLabel;html=1;align=center;verticalAlign=middle;resizable=0;points=[];" vertex="1" connectable="0" parent="YT2d1zYaTEOhZWZDPxQu-30">
          <mxGeometry x="-0.137" y="-1" relative="1" as="geometry">
            <mxPoint as="offset" />
          </mxGeometry>
        </mxCell>
        <mxCell id="YT2d1zYaTEOhZWZDPxQu-32" value="" style="endArrow=classic;html=1;rounded=0;dashed=1;" edge="1" parent="1">
          <mxGeometry width="50" height="50" relative="1" as="geometry">
            <mxPoint x="307" y="410" as="sourcePoint" />
            <mxPoint x="513" y="410" as="targetPoint" />
          </mxGeometry>
        </mxCell>
        <mxCell id="YT2d1zYaTEOhZWZDPxQu-33" value="&lt;span style=&quot;font-size: 14px;&quot;&gt;Copy&lt;/span&gt;" style="edgeLabel;html=1;align=center;verticalAlign=middle;resizable=0;points=[];" vertex="1" connectable="0" parent="YT2d1zYaTEOhZWZDPxQu-32">
          <mxGeometry x="-0.137" y="-1" relative="1" as="geometry">
            <mxPoint as="offset" />
          </mxGeometry>
        </mxCell>
        <mxCell id="YT2d1zYaTEOhZWZDPxQu-36" value="&lt;span style=&quot;color: rgb(0, 0, 0); font-family: Helvetica; font-size: 16px; font-style: normal; font-variant-ligatures: normal; font-variant-caps: normal; font-weight: 400; letter-spacing: normal; orphans: 2; text-align: center; text-indent: 0px; text-transform: none; widows: 2; word-spacing: 0px; -webkit-text-stroke-width: 0px; background-color: rgb(251, 251, 251); text-decoration-thickness: initial; text-decoration-style: initial; text-decoration-color: initial; float: none; display: inline !important;&quot;&gt;Source Model&lt;/span&gt;" style="text;whiteSpace=wrap;html=1;" vertex="1" parent="1">
          <mxGeometry x="169" y="140" width="120" height="40" as="geometry" />
        </mxCell>
        <mxCell id="YT2d1zYaTEOhZWZDPxQu-37" value="&lt;span style=&quot;color: rgb(0, 0, 0); font-family: Helvetica; font-size: 16px; font-style: normal; font-variant-ligatures: normal; font-variant-caps: normal; font-weight: 400; letter-spacing: normal; orphans: 2; text-align: center; text-indent: 0px; text-transform: none; widows: 2; word-spacing: 0px; -webkit-text-stroke-width: 0px; background-color: rgb(251, 251, 251); text-decoration-thickness: initial; text-decoration-style: initial; text-decoration-color: initial; float: none; display: inline !important;&quot;&gt;Target Model&lt;/span&gt;" style="text;whiteSpace=wrap;html=1;" vertex="1" parent="1">
          <mxGeometry x="519" y="140" width="120" height="40" as="geometry" />
        </mxCell>
        <mxCell id="YT2d1zYaTEOhZWZDPxQu-38" value="&lt;font style=&quot;font-size: 14px;&quot;&gt;Train from&lt;br&gt;scratch&lt;/font&gt;" style="edgeLabel;html=1;align=center;verticalAlign=middle;resizable=0;points=[];" vertex="1" connectable="0" parent="1">
          <mxGeometry x="708.9988888888889" y="220" as="geometry" />
        </mxCell>
        <mxCell id="YT2d1zYaTEOhZWZDPxQu-39" value="" style="shape=curlyBracket;whiteSpace=wrap;html=1;rounded=1;labelPosition=left;verticalLabelPosition=middle;align=right;verticalAlign=middle;" vertex="1" parent="1">
          <mxGeometry x="129" y="220" width="20" height="380" as="geometry" />
        </mxCell>
        <mxCell id="YT2d1zYaTEOhZWZDPxQu-40" value="" style="shape=curlyBracket;whiteSpace=wrap;html=1;rounded=1;flipH=1;labelPosition=right;verticalLabelPosition=middle;align=left;verticalAlign=middle;" vertex="1" parent="1">
          <mxGeometry x="649" y="316.5" width="20" height="177" as="geometry" />
        </mxCell>
        <mxCell id="YT2d1zYaTEOhZWZDPxQu-41" value="" style="shape=curlyBracket;whiteSpace=wrap;html=1;rounded=1;flipH=1;labelPosition=right;verticalLabelPosition=middle;align=left;verticalAlign=middle;size=0.5;" vertex="1" parent="1">
          <mxGeometry x="649" y="190" width="20" height="60" as="geometry" />
        </mxCell>
        <mxCell id="YT2d1zYaTEOhZWZDPxQu-42" value="&lt;span style=&quot;font-size: 14px;&quot;&gt;Fine-tune&lt;/span&gt;" style="edgeLabel;html=1;align=center;verticalAlign=middle;resizable=0;points=[];" vertex="1" connectable="0" parent="1">
          <mxGeometry x="718.9988888888889" y="230" as="geometry">
            <mxPoint x="-9" y="174" as="offset" />
          </mxGeometry>
        </mxCell>
        <mxCell id="YT2d1zYaTEOhZWZDPxQu-43" value="&lt;font style=&quot;font-size: 16px;&quot; color=&quot;#ffffff&quot;&gt;Output layer&lt;/font&gt;" style="rounded=0;whiteSpace=wrap;html=1;fillColor=#87B2F0;strokeColor=#36393d;" vertex="1" parent="1">
          <mxGeometry x="109" y="920" width="101" height="50" as="geometry" />
        </mxCell>
        <mxCell id="YT2d1zYaTEOhZWZDPxQu-44" value="" style="edgeStyle=orthogonalEdgeStyle;rounded=0;orthogonalLoop=1;jettySize=auto;html=1;" edge="1" parent="1" source="YT2d1zYaTEOhZWZDPxQu-45" target="YT2d1zYaTEOhZWZDPxQu-43">
          <mxGeometry relative="1" as="geometry" />
        </mxCell>
        <mxCell id="YT2d1zYaTEOhZWZDPxQu-45" value="&lt;font style=&quot;font-size: 16px;&quot; color=&quot;#ffffff&quot;&gt;Layer L - 1&lt;/font&gt;" style="rounded=0;whiteSpace=wrap;html=1;fillColor=#87B2F0;strokeColor=#36393d;" vertex="1" parent="1">
          <mxGeometry x="109" y="1010" width="101" height="50" as="geometry" />
        </mxCell>
        <mxCell id="YT2d1zYaTEOhZWZDPxQu-46" value="&lt;font style=&quot;font-size: 16px;&quot; color=&quot;#ffffff&quot;&gt;Layer 1&lt;/font&gt;" style="rounded=0;whiteSpace=wrap;html=1;fillColor=#87B2F0;strokeColor=#36393d;" vertex="1" parent="1">
          <mxGeometry x="110" y="1160" width="100" height="50" as="geometry" />
        </mxCell>
        <mxCell id="YT2d1zYaTEOhZWZDPxQu-47" value="" style="edgeStyle=orthogonalEdgeStyle;rounded=0;orthogonalLoop=1;jettySize=auto;html=1;" edge="1" parent="1">
          <mxGeometry relative="1" as="geometry">
            <mxPoint x="159.5" y="1100" as="sourcePoint" />
            <mxPoint x="159" y="1060" as="targetPoint" />
            <Array as="points">
              <mxPoint x="159.5" y="1090" />
              <mxPoint x="159.5" y="1090" />
            </Array>
          </mxGeometry>
        </mxCell>
        <mxCell id="YT2d1zYaTEOhZWZDPxQu-48" value="&lt;font style=&quot;font-size: 14px;&quot;&gt;...&lt;/font&gt;" style="text;html=1;strokeColor=none;fillColor=none;align=center;verticalAlign=middle;whiteSpace=wrap;rounded=0;" vertex="1" parent="1">
          <mxGeometry x="129.5" y="1090" width="60" height="30" as="geometry" />
        </mxCell>
        <mxCell id="YT2d1zYaTEOhZWZDPxQu-49" value="" style="edgeStyle=orthogonalEdgeStyle;rounded=0;orthogonalLoop=1;jettySize=auto;html=1;" edge="1" parent="1">
          <mxGeometry relative="1" as="geometry">
            <mxPoint x="159.77999999999997" y="1160" as="sourcePoint" />
            <mxPoint x="159.27999999999997" y="1120" as="targetPoint" />
            <Array as="points">
              <mxPoint x="159.77999999999997" y="1150" />
              <mxPoint x="159.77999999999997" y="1150" />
            </Array>
          </mxGeometry>
        </mxCell>
        <mxCell id="YT2d1zYaTEOhZWZDPxQu-50" value="" style="edgeStyle=orthogonalEdgeStyle;rounded=0;orthogonalLoop=1;jettySize=auto;html=1;" edge="1" parent="1" source="YT2d1zYaTEOhZWZDPxQu-51" target="YT2d1zYaTEOhZWZDPxQu-46">
          <mxGeometry relative="1" as="geometry" />
        </mxCell>
        <mxCell id="YT2d1zYaTEOhZWZDPxQu-51" value="&lt;font style=&quot;font-size: 16px;&quot;&gt;Source Data&lt;/font&gt;" style="rounded=0;whiteSpace=wrap;html=1;fontColor=#000000;" vertex="1" parent="1">
          <mxGeometry x="110" y="1250" width="100" height="50" as="geometry" />
        </mxCell>
        <mxCell id="YT2d1zYaTEOhZWZDPxQu-52" value="&lt;span style=&quot;color: rgb(0, 0, 0); font-family: Helvetica; font-size: 16px; font-style: normal; font-variant-ligatures: normal; font-variant-caps: normal; font-weight: 400; letter-spacing: normal; orphans: 2; text-align: center; text-indent: 0px; text-transform: none; widows: 2; word-spacing: 0px; -webkit-text-stroke-width: 0px; background-color: rgb(251, 251, 251); text-decoration-thickness: initial; text-decoration-style: initial; text-decoration-color: initial; float: none; display: inline !important;&quot;&gt;Pre-train&lt;/span&gt;" style="text;whiteSpace=wrap;html=1;" vertex="1" parent="1">
          <mxGeometry y="1123" width="120" height="40" as="geometry" />
        </mxCell>
        <mxCell id="YT2d1zYaTEOhZWZDPxQu-53" value="&lt;font style=&quot;font-size: 16px;&quot; color=&quot;#ffffff&quot;&gt;Output layer&lt;/font&gt;" style="rounded=0;whiteSpace=wrap;html=1;fillColor=#87B2F0;strokeColor=#36393d;" vertex="1" parent="1">
          <mxGeometry x="414" y="920" width="97" height="50" as="geometry" />
        </mxCell>
        <mxCell id="YT2d1zYaTEOhZWZDPxQu-54" value="" style="edgeStyle=orthogonalEdgeStyle;rounded=0;orthogonalLoop=1;jettySize=auto;html=1;" edge="1" parent="1" source="YT2d1zYaTEOhZWZDPxQu-55" target="YT2d1zYaTEOhZWZDPxQu-53">
          <mxGeometry relative="1" as="geometry" />
        </mxCell>
        <mxCell id="YT2d1zYaTEOhZWZDPxQu-56" value="&lt;font style=&quot;font-size: 16px;&quot; color=&quot;#ffffff&quot;&gt;Layer 1&lt;/font&gt;" style="rounded=0;whiteSpace=wrap;html=1;fillColor=#87B2F0;strokeColor=#36393d;" vertex="1" parent="1">
          <mxGeometry x="415" y="1163" width="96" height="47" as="geometry" />
        </mxCell>
        <mxCell id="YT2d1zYaTEOhZWZDPxQu-57" value="" style="edgeStyle=orthogonalEdgeStyle;rounded=0;orthogonalLoop=1;jettySize=auto;html=1;" edge="1" parent="1">
          <mxGeometry relative="1" as="geometry">
            <mxPoint x="462.5" y="1103" as="sourcePoint" />
            <mxPoint x="462" y="1063" as="targetPoint" />
            <Array as="points">
              <mxPoint x="462.5" y="1093" />
              <mxPoint x="462.5" y="1093" />
            </Array>
          </mxGeometry>
        </mxCell>
        <mxCell id="YT2d1zYaTEOhZWZDPxQu-58" value="&lt;font style=&quot;font-size: 14px;&quot;&gt;...&lt;/font&gt;" style="text;html=1;strokeColor=none;fillColor=none;align=center;verticalAlign=middle;whiteSpace=wrap;rounded=0;" vertex="1" parent="1">
          <mxGeometry x="432.5" y="1093" width="60" height="30" as="geometry" />
        </mxCell>
        <mxCell id="YT2d1zYaTEOhZWZDPxQu-59" value="" style="edgeStyle=orthogonalEdgeStyle;rounded=0;orthogonalLoop=1;jettySize=auto;html=1;" edge="1" parent="1">
          <mxGeometry relative="1" as="geometry">
            <mxPoint x="462.78" y="1163" as="sourcePoint" />
            <mxPoint x="462.28" y="1123" as="targetPoint" />
            <Array as="points">
              <mxPoint x="462.78" y="1153" />
              <mxPoint x="462.78" y="1153" />
            </Array>
          </mxGeometry>
        </mxCell>
        <mxCell id="YT2d1zYaTEOhZWZDPxQu-60" value="" style="edgeStyle=orthogonalEdgeStyle;rounded=0;orthogonalLoop=1;jettySize=auto;html=1;" edge="1" parent="1" source="YT2d1zYaTEOhZWZDPxQu-61" target="YT2d1zYaTEOhZWZDPxQu-56">
          <mxGeometry relative="1" as="geometry" />
        </mxCell>
        <mxCell id="YT2d1zYaTEOhZWZDPxQu-61" value="&lt;font style=&quot;font-size: 16px;&quot;&gt;Target Data A&lt;/font&gt;" style="rounded=0;whiteSpace=wrap;html=1;fontColor=#000000;" vertex="1" parent="1">
          <mxGeometry x="412.5" y="1250" width="100" height="50" as="geometry" />
        </mxCell>
        <mxCell id="YT2d1zYaTEOhZWZDPxQu-62" value="" style="endArrow=classic;html=1;rounded=0;dashed=1;" edge="1" parent="1">
          <mxGeometry width="50" height="50" relative="1" as="geometry">
            <mxPoint x="243" y="950" as="sourcePoint" />
            <mxPoint x="410" y="950" as="targetPoint" />
          </mxGeometry>
        </mxCell>
        <mxCell id="YT2d1zYaTEOhZWZDPxQu-63" value="&lt;font style=&quot;font-size: 14px;&quot;&gt;Random&lt;br&gt;initialization&lt;/font&gt;" style="edgeLabel;html=1;align=center;verticalAlign=middle;resizable=0;points=[];" vertex="1" connectable="0" parent="YT2d1zYaTEOhZWZDPxQu-62">
          <mxGeometry x="-0.137" y="-1" relative="1" as="geometry">
            <mxPoint as="offset" />
          </mxGeometry>
        </mxCell>
        <mxCell id="YT2d1zYaTEOhZWZDPxQu-66" value="" style="endArrow=classic;html=1;rounded=0;dashed=1;" edge="1" parent="1">
          <mxGeometry width="50" height="50" relative="1" as="geometry">
            <mxPoint x="226.5" y="1184.44" as="sourcePoint" />
            <mxPoint x="410" y="1184" as="targetPoint" />
          </mxGeometry>
        </mxCell>
        <mxCell id="YT2d1zYaTEOhZWZDPxQu-67" value="&lt;span style=&quot;font-size: 14px;&quot;&gt;Copy&lt;/span&gt;" style="edgeLabel;html=1;align=center;verticalAlign=middle;resizable=0;points=[];" vertex="1" connectable="0" parent="YT2d1zYaTEOhZWZDPxQu-66">
          <mxGeometry x="-0.137" y="-1" relative="1" as="geometry">
            <mxPoint as="offset" />
          </mxGeometry>
        </mxCell>
        <mxCell id="YT2d1zYaTEOhZWZDPxQu-68" value="" style="endArrow=classic;html=1;rounded=0;dashed=1;" edge="1" parent="1">
          <mxGeometry width="50" height="50" relative="1" as="geometry">
            <mxPoint x="236" y="1107.44" as="sourcePoint" />
            <mxPoint x="416" y="1107" as="targetPoint" />
          </mxGeometry>
        </mxCell>
        <mxCell id="YT2d1zYaTEOhZWZDPxQu-69" value="&lt;span style=&quot;font-size: 14px;&quot;&gt;Copy&lt;/span&gt;" style="edgeLabel;html=1;align=center;verticalAlign=middle;resizable=0;points=[];" vertex="1" connectable="0" parent="YT2d1zYaTEOhZWZDPxQu-68">
          <mxGeometry x="-0.137" y="-1" relative="1" as="geometry">
            <mxPoint as="offset" />
          </mxGeometry>
        </mxCell>
        <mxCell id="YT2d1zYaTEOhZWZDPxQu-70" value="&lt;span style=&quot;color: rgb(0, 0, 0); font-family: Helvetica; font-size: 16px; font-style: normal; font-variant-ligatures: normal; font-variant-caps: normal; font-weight: 400; letter-spacing: normal; orphans: 2; text-align: center; text-indent: 0px; text-transform: none; widows: 2; word-spacing: 0px; -webkit-text-stroke-width: 0px; background-color: rgb(251, 251, 251); text-decoration-thickness: initial; text-decoration-style: initial; text-decoration-color: initial; float: none; display: inline !important;&quot;&gt;Source Model&lt;/span&gt;" style="text;whiteSpace=wrap;html=1;" vertex="1" parent="1">
          <mxGeometry x="149" y="660" width="120" height="40" as="geometry" />
        </mxCell>
        <mxCell id="YT2d1zYaTEOhZWZDPxQu-71" value="&lt;span style=&quot;color: rgb(0, 0, 0); font-family: Helvetica; font-size: 16px; font-style: normal; font-variant-ligatures: normal; font-variant-caps: normal; font-weight: 400; letter-spacing: normal; orphans: 2; text-align: center; text-indent: 0px; text-transform: none; widows: 2; word-spacing: 0px; -webkit-text-stroke-width: 0px; background-color: rgb(251, 251, 251); text-decoration-thickness: initial; text-decoration-style: initial; text-decoration-color: initial; float: none; display: inline !important;&quot;&gt;Target Model&lt;/span&gt;" style="text;whiteSpace=wrap;html=1;" vertex="1" parent="1">
          <mxGeometry x="499" y="660" width="120" height="40" as="geometry" />
        </mxCell>
        <mxCell id="YT2d1zYaTEOhZWZDPxQu-72" value="&lt;font style=&quot;font-size: 14px;&quot;&gt;Train from&lt;br&gt;scratch&lt;/font&gt;" style="edgeLabel;html=1;align=center;verticalAlign=middle;resizable=0;points=[];" vertex="1" connectable="0" parent="1">
          <mxGeometry x="648.9988888888889" y="950" as="geometry" />
        </mxCell>
        <mxCell id="YT2d1zYaTEOhZWZDPxQu-73" value="" style="shape=curlyBracket;whiteSpace=wrap;html=1;rounded=1;labelPosition=left;verticalLabelPosition=middle;align=right;verticalAlign=middle;" vertex="1" parent="1">
          <mxGeometry x="69" y="950" width="31" height="330" as="geometry" />
        </mxCell>
        <mxCell id="YT2d1zYaTEOhZWZDPxQu-74" value="" style="shape=curlyBracket;whiteSpace=wrap;html=1;rounded=1;flipH=1;labelPosition=right;verticalLabelPosition=middle;align=left;verticalAlign=middle;" vertex="1" parent="1">
          <mxGeometry x="589" y="1046.5" width="20" height="177" as="geometry" />
        </mxCell>
        <mxCell id="YT2d1zYaTEOhZWZDPxQu-75" value="" style="shape=curlyBracket;whiteSpace=wrap;html=1;rounded=1;flipH=1;labelPosition=right;verticalLabelPosition=middle;align=left;verticalAlign=middle;size=0.5;" vertex="1" parent="1">
          <mxGeometry x="589" y="920" width="20" height="60" as="geometry" />
        </mxCell>
        <mxCell id="YT2d1zYaTEOhZWZDPxQu-76" value="&lt;span style=&quot;font-size: 14px;&quot;&gt;Fine-tune&lt;/span&gt;" style="edgeLabel;html=1;align=center;verticalAlign=middle;resizable=0;points=[];" vertex="1" connectable="0" parent="1">
          <mxGeometry x="658.9988888888889" y="960" as="geometry">
            <mxPoint x="-9" y="174" as="offset" />
          </mxGeometry>
        </mxCell>
        <mxCell id="YT2d1zYaTEOhZWZDPxQu-77" value="&lt;font style=&quot;font-size: 16px;&quot;&gt;Target Data B&lt;/font&gt;" style="rounded=0;whiteSpace=wrap;html=1;fontColor=#000000;" vertex="1" parent="1">
          <mxGeometry x="629" y="1270" width="120" height="60" as="geometry" />
        </mxCell>
        <mxCell id="YT2d1zYaTEOhZWZDPxQu-78" value="" style="endArrow=classic;html=1;rounded=0;dashed=1;" edge="1" parent="1" target="YT2d1zYaTEOhZWZDPxQu-55">
          <mxGeometry width="50" height="50" relative="1" as="geometry">
            <mxPoint x="240" y="1040" as="sourcePoint" />
            <mxPoint x="453" y="1059.44" as="targetPoint" />
          </mxGeometry>
        </mxCell>
        <mxCell id="YT2d1zYaTEOhZWZDPxQu-79" value="&lt;span style=&quot;font-size: 14px;&quot;&gt;Copy&lt;/span&gt;" style="edgeLabel;html=1;align=center;verticalAlign=middle;resizable=0;points=[];" vertex="1" connectable="0" parent="YT2d1zYaTEOhZWZDPxQu-78">
          <mxGeometry x="-0.137" y="-1" relative="1" as="geometry">
            <mxPoint as="offset" />
          </mxGeometry>
        </mxCell>
        <mxCell id="YT2d1zYaTEOhZWZDPxQu-55" value="&lt;font style=&quot;font-size: 16px;&quot; color=&quot;#ffffff&quot;&gt;Layer L - 1&lt;/font&gt;" style="rounded=0;whiteSpace=wrap;html=1;fillColor=#87B2F0;strokeColor=#36393d;" vertex="1" parent="1">
          <mxGeometry x="416" y="1013" width="94" height="50" as="geometry" />
        </mxCell>
      </root>
    </mxGraphModel>
  </diagram>
</mxfile>
